<?xml version="1.0" encoding="utf-8"?>
<!-- Generator: Adobe Illustrator 15.0.2, SVG Export Plug-In . SVG Version: 6.00 Build 0)  -->
<!DOCTYPE svg PUBLIC "-//W3C//DTD SVG 1.1//EN" "http://www.w3.org/Graphics/SVG/1.1/DTD/svg11.dtd" [
	<!ENTITY ns_extend "http://ns.adobe.com/Extensibility/1.0/">
	<!ENTITY ns_ai "http://ns.adobe.com/AdobeIllustrator/10.0/">
	<!ENTITY ns_graphs "http://ns.adobe.com/Graphs/1.0/">
	<!ENTITY ns_vars "http://ns.adobe.com/Variables/1.0/">
	<!ENTITY ns_imrep "http://ns.adobe.com/ImageReplacement/1.0/">
	<!ENTITY ns_sfw "http://ns.adobe.com/SaveForWeb/1.0/">
	<!ENTITY ns_custom "http://ns.adobe.com/GenericCustomNamespace/1.0/">
	<!ENTITY ns_adobe_xpath "http://ns.adobe.com/XPath/1.0/">
]>
<svg version="1.1" id="Logo_IT_LYMPICS_2018_-_CMYK" xmlns:x="&ns_extend;" xmlns:i="&ns_ai;" xmlns:graph="&ns_graphs;"
	 xmlns="http://www.w3.org/2000/svg" xmlns:xlink="http://www.w3.org/1999/xlink" x="0px" y="0px" width="76.536px"
	 height="87.874px" viewBox="0 0 76.536 87.874" enable-background="new 0 0 76.536 87.874" xml:space="preserve">
     <g>
		<g>
			<path fill="#0099DF" d="M32.061,17.591h-6.323V7.353h-4.804v-2.56H36.83v2.56h-4.769V17.591z"/>
		</g>
		<g>
			<path d="M5.145,21.857h5.273v10.239h9.086v2.56H5.145V21.857z"/>
			<path d="M20.994,21.857h5.273v3.84h1.318v1.279h2.636v-1.279h1.318v-3.84h5.273v5.119h-1.318v1.28h-1.318v1.28H31.54v5.119
				h-5.273v-5.119H23.63v-1.28h-1.318v-1.28h-1.318V21.857z"/>
		</g>
		<g>
			<path d="M10.213,51.722H5.145V38.923h5.068v1.279h1.267v1.28h1.267v1.28h1.267v-1.28h1.267v-1.28h1.268v-1.279h5.068v12.799
				h-5.068v-6.399h-1.268v1.28h-1.267v1.279h-1.267v-1.279H11.48v-1.28h-1.267V51.722z"/>
			<path d="M27.952,51.722h-5.068V38.923h5.068h3.801h3.801v1.279h1.267v5.12h-1.267v1.28h-7.603V51.722z M27.952,44.042h3.801
				v-2.56h-3.801V44.042z"/>
		</g>
		<g>
			<path d="M5.145,55.989h14.334v2.56h-4.3v7.68h4.3v2.56H5.145v-2.56h4.3v-7.68h-4.3V55.989z"/>
			<path d="M35.369,68.788H22.467v-1.28h-1.434V57.268h1.434v-1.279h4.301h8.601v1.279h1.434v3.84h-5.734v-2.56h-4.3v7.68h4.3v-2.56
				h4.3h1.434v3.839h-1.434V68.788z"/>
		</g>
		<g>
			<path d="M5.145,83.293h9.135v-2.56H6.449v-1.28H5.145v-5.12h1.305v-1.279H19.5v2.56h-9.136v2.56h3.915h3.915v1.28H19.5v5.118
				h-1.306v1.281H5.145V83.293z"/>
		</g>
		<rect x="22.483" y="72.958" width="14.256" height="12.825"/>
		<g>
			<g>
				<path fill="#FFFFFF" d="M29.222,75.935c-0.067,0.205-0.2,0.348-0.4,0.426l-3.021,1.14l-0.007,0.208h2.584h0.917v0.946h-3.404
					H24.46v-1.182c0-0.356,0.168-0.594,0.507-0.709l2.723-1.008c0.033-0.012,0.06-0.051,0.08-0.117
					c0.021-0.066-0.02-0.098-0.122-0.098H24.46v-0.917h3.849c0.296,0,0.524,0.08,0.685,0.239c0.159,0.161,0.26,0.328,0.302,0.504
					C29.313,75.539,29.289,75.727,29.222,75.935z"/>
				<path fill="#FFFFFF" d="M34.484,78.356c-0.199,0.198-0.57,0.299-1.112,0.299h-1.778c-0.538,0-0.91-0.098-1.119-0.289
					c-0.208-0.192-0.312-0.483-0.312-0.873v-1.707c0-0.389,0.104-0.68,0.312-0.873c0.208-0.19,0.581-0.288,1.119-0.288h1.778
					c0.542,0,0.913,0.1,1.112,0.298c0.199,0.201,0.298,0.487,0.298,0.863v1.707C34.783,77.87,34.683,78.156,34.484,78.356z
					 M33.567,76.182c0-0.223-0.047-0.387-0.139-0.486c-0.093-0.104-0.299-0.154-0.618-0.154h-0.681
					c-0.296,0-0.495,0.056-0.594,0.166c-0.1,0.112-0.149,0.27-0.149,0.475v0.915c0,0.205,0.05,0.361,0.149,0.474
					c0.099,0.11,0.297,0.167,0.594,0.167h0.681c0.319,0,0.523-0.052,0.611-0.154c0.088-0.101,0.137-0.262,0.146-0.479V76.182z"/>
			</g>
			<g>
				<path fill="#FFFFFF" d="M26.106,81.005h-1.667v-0.917h1.403h1.473v3.113h1.737v0.917H27.62h-1.778h-1.403v-0.917h1.667V81.005z"
					/>
				<path fill="#FFFFFF" d="M32.872,84.119h-1.32c-0.542,0-0.912-0.101-1.111-0.299c-0.2-0.2-0.298-0.486-0.298-0.863v-0.174
					c0.009-0.276,0.263-0.472,0.764-0.582c-0.51-0.186-0.764-0.444-0.764-0.777V81.25c0-0.377,0.099-0.663,0.298-0.863
					c0.199-0.198,0.57-0.298,1.111-0.298h1.403h0.396c0.542,0,0.913,0.1,1.112,0.298c0.199,0.2,0.298,0.486,0.298,0.863v0.174
					c0,0.333-0.254,0.592-0.764,0.777c0.5,0.11,0.754,0.306,0.764,0.582v0.174c0,0.377-0.1,0.663-0.298,0.863
					c-0.199,0.198-0.57,0.299-1.112,0.299H32.872z M32.087,81.631h0.729c0.315,0,0.515-0.022,0.601-0.063
					c0.085-0.042,0.128-0.096,0.128-0.159c0-0.066-0.046-0.149-0.139-0.25c-0.093-0.103-0.299-0.153-0.618-0.153h-0.674
					c-0.319,0-0.525,0.051-0.618,0.153c-0.092,0.101-0.139,0.184-0.139,0.25c0,0.063,0.043,0.117,0.128,0.159
					C31.571,81.609,31.772,81.631,32.087,81.631z M32.414,82.548h-0.312c-0.315,0-0.518,0.024-0.608,0.076
					c-0.09,0.051-0.136,0.109-0.136,0.173c0,0.066,0.046,0.149,0.139,0.25c0.093,0.103,0.299,0.154,0.618,0.154h0.674
					c0.319,0,0.525-0.052,0.618-0.154c0.093-0.101,0.139-0.184,0.139-0.25c0-0.063-0.045-0.122-0.135-0.173
					c-0.09-0.052-0.293-0.076-0.608-0.076H32.414z"/>
			</g>
		</g>
		<g>
			<g>
				<defs>
					<path id="SVGID_1_" d="M52.355,20.668c-2.066-2.205-3.524-4.334-4.301-6.35h-1.597v5.284H49.1v2.643h-2.643v-2.643h-2.63V16.96
						h-2.642v7.927h2.642v2.643h-2.642v38.869c2.492-1.615,5.936-3.656,10.719-6.261C71.839,49.293,63.863,32.953,52.355,20.668z
						 M46.482,35.582H43.84V32.94h2.642V35.582z M51.742,30.172H49.1V27.53h2.642v-2.643h2.642v2.643h-2.642V30.172z M54.446,40.853
						h-2.642v-2.629h2.642V40.853z"/>
				</defs>
				<clipPath id="SVGID_2_">
					<use xlink:href="#SVGID_1_"  overflow="visible"/>
				</clipPath>

					<linearGradient id="SVGID_3_" gradientUnits="userSpaceOnUse" x1="-0.3511" y1="82.0679" x2="0.0754" y2="82.0679" gradientTransform="matrix(-13.349 -66.2036 -66.2036 13.349 5488.4663 -1069.2185)">
					<stop  offset="0" style="stop-color:#0099DF"/>
					<stop  offset="1" style="stop-color:#142D89"/>
				</linearGradient>
				<polygon clip-path="url(#SVGID_2_)" fill="url(#SVGID_3_)" points="42.164,72.404 27.799,1.166 70.721,-7.488 85.083,63.748
									"/>
			</g>
			<rect x="49.1" y="27.53" fill="none" width="2.642" height="2.643"/>
			<g>
				<defs>
					<path id="SVGID_4_" d="M44.541,24.988c-1.114-3.067-1.666-5.484-2.066-8.027h-1.29v7.927h2.642v2.643h-2.642v37.567
						C54.346,46.902,51.804,45.074,44.541,24.988z M43.84,35.582V32.94h2.642v2.642H43.84z"/>
				</defs>
				<clipPath id="SVGID_5_">
					<use xlink:href="#SVGID_4_"  overflow="visible"/>
				</clipPath>

					<linearGradient id="SVGID_6_" gradientUnits="userSpaceOnUse" x1="1.5835" y1="80.186" x2="2.0242" y2="80.186" gradientTransform="matrix(11.8391 76.4758 76.4758 -11.8391 -6107.2632 843.9494)">
					<stop  offset="0" style="stop-color:#0099DF"/>
					<stop  offset="1" style="stop-color:#142D89"/>
				</linearGradient>
				<polygon clip-path="url(#SVGID_5_)" fill="url(#SVGID_6_)" points="53.966,-5.24 64.61,63.509 38.259,67.589 27.617,-1.161
					"/>
			</g>
			<g>
				<defs>
					<path id="SVGID_7_" d="M57.037,73.684c-9.796,2.274-10.896,11.355-10.974,12.164h0.863
						c24.297-1.827,24.297-20.139,24.297-20.139S67.289,71.301,57.037,73.684"/>
				</defs>
				<clipPath id="SVGID_8_">
					<use xlink:href="#SVGID_7_"  overflow="visible"/>
				</clipPath>

					<linearGradient id="SVGID_9_" gradientUnits="userSpaceOnUse" x1="2.2886" y1="80.2017" x2="2.7153" y2="80.2017" gradientTransform="matrix(-38.0683 31.9431 31.9431 38.0683 -2405.1079 -3059.6707)">
					<stop  offset="0" style="stop-color:#0099DF"/>
					<stop  offset="1" style="stop-color:#142D89"/>
				</linearGradient>
				<polygon clip-path="url(#SVGID_8_)" fill="url(#SVGID_9_)" points="81.138,77.527 56.459,98.237 36.147,74.03 60.829,53.322
									"/>
			</g>
			<g>
				<rect x="46.463" y="11.682" fill="#0099DF" width="2.64" height="2.643"/>
				<rect x="46.463" y="6.4" fill="#0099DF" width="2.64" height="2.642"/>
				<rect x="46.463" y="1.117" fill="#0099DF" width="2.642" height="2.642"/>
				<rect x="43.822" y="3.759" fill="#0099DF" width="2.641" height="2.641"/>
				<rect x="41.18" y="6.4" fill="#0099DF" width="2.642" height="2.642"/>
				<rect x="43.822" y="9.042" fill="#0099DF" width="2.64" height="2.641"/>
				<rect x="43.822" y="14.325" fill="#0099DF" width="2.641" height="2.641"/>
				<rect x="41.18" y="11.682" fill="#0099DF" width="2.642" height="2.643"/>
			</g>
			<g>
				<defs>
					<path id="SVGID_10_" d="M50.719,59.305c-4.446,2.937-7.474,5.037-9.537,6.762v14.386c0.004-0.01,0.008-0.02,0.008-0.02
						s1.14-9.009,16.674-14.084c8.621-2.816,12.807-8.662,13.837-15.504c0,0,0.244-2.134,0.244-3.895s-0.244-3.377-0.244-3.377
						c-0.451-3.354-1.48-6.771-2.963-10.056C68.739,33.518,66.875,48.637,50.719,59.305"/>
				</defs>
				<clipPath id="SVGID_11_">
					<use xlink:href="#SVGID_10_"  overflow="visible"/>
				</clipPath>

					<linearGradient id="SVGID_12_" gradientUnits="userSpaceOnUse" x1="-0.8843" y1="81.5122" x2="-0.4576" y2="81.5122" gradientTransform="matrix(42.2615 -45.6383 -45.6383 -42.2615 3806.7012 3469.1836)">
					<stop  offset="0" style="stop-color:#0099DF"/>
					<stop  offset="1" style="stop-color:#142D89"/>
				</linearGradient>
				<polygon clip-path="url(#SVGID_11_)" fill="url(#SVGID_12_)" points="17.784,58.787 55.27,18.304 95.098,55.185 57.612,95.667
									"/>
			</g>
			<rect x="41.185" y="24.887" fill="none" width="2.642" height="2.643"/>
			<rect x="43.84" y="32.94" fill="none" width="2.642" height="2.642"/>
			<rect x="41.185" y="24.887" fill="none" width="2.642" height="2.643"/>
			<rect x="43.84" y="32.94" fill="none" width="2.642" height="2.642"/>
			<rect x="43.827" y="14.319" fill="none" width="2.63" height="2.642"/>
		</g>
		<path fill="#0099DF" d="M5.145,4.754h14.334v2.56h-4.3v7.679h4.3v2.56H5.145v-2.56h4.3V7.313h-4.3V4.754z"/>
	</g>
</svg>
